<?xml version="1.0" encoding="UTF-8"?>
<svg id="Layer_1" data-name="Layer 1" xmlns="http://www.w3.org/2000/svg" viewBox="0 0 109.87 125.59">
  <defs>
    <style>
      .cls-1 {
        fill: #38752e;
      }
    </style>
  </defs>
  <path class="cls-1" d="M64.69,11.92H11.99l.23,102.14h3.84c3.63,0,5.35.08,11.02,0,6.39-.08,11.48.7,17.18-2.86,10.9-6.83,7.4-19.11,7.98-29.86,20.49.51,42.81-12.52,45.16-33.73,2.17-19.68-12.86-35.3-32.7-35.69ZM72.21,65.45c-9.41,6.1-21.34,4.37-32.05,4.63v26.74c0,.72-.94,2.35-1.44,2.95-3.25,3.88-6.16,2.76-14.43,2.96v-26.21c.01-5.63,4.14-9.27,7.94-12.56,6.96-6.02,13.98-11.98,21.06-17.87l.64.18,20,17.14c.73.69-1.09,1.63-1.72,2.05ZM81.97,55.45l-28.73-23.79-28.94,24.44V24.02h41.68c2.61.23,6.3,1.48,8.61,2.72,10.53,5.63,12.55,18.77,7.38,28.71Z"/>
</svg>